<?xml version="1.0" encoding="utf-8"?>
<!-- Generator: Adobe Illustrator 16.0.0, SVG Export Plug-In . SVG Version: 6.00 Build 0)  -->
<svg version="1.2" baseProfile="tiny" xmlns="http://www.w3.org/2000/svg" xmlns:xlink="http://www.w3.org/1999/xlink" x="0px"
	 y="0px" width="323.4px" height="340.6px" viewBox="0 0 323.4 340.6" xml:space="preserve">
<g id="tail">
</g>
<g id="body">
</g>
<g id="wings">
</g>
<g id="breast_colour">
</g>
<g id="breast">
</g>
<g id="head">
</g>
<g id="head_splash">
</g>
<g id="Layer_11">
	<g id="Layer_9">
	</g>
</g>
<g id="BIRD">
	<g id="wing_1_">
		<path fill-rule="evenodd" fill="#8C0000" d="M273.4,37.6c-15.3,64.8-39.5,86.7-72.5,65.7C183.2,68.3,207.4,46.4,273.4,37.6z"/>
	</g>
	<path fill-rule="evenodd" fill="#999999" d="M161.7,196.8l-60.1,36.9c-12.8,5.3-19.8,1.1-21-12.7l8.4-68L161.7,196.8z"/>
	<path fill-rule="evenodd" fill="#C9946C" d="M158.8,75.2c26.1,0,48.4,6.9,66.9,20.8c18.5,13.9,27.7,30.6,27.7,50.2
		c0,19.6-9.3,36.3-27.7,50.1C207.3,210.1,185,217,158.8,217c-26.1,0-48.5-6.9-67-20.8c-18.5-13.8-27.7-30.5-27.7-50.1
		c0-19.6,9.2-36.3,27.7-50.2C110.4,82.1,132.7,75.2,158.8,75.2z"/>
	<path fill-rule="evenodd" fill="#FFAA00" d="M162.2,77.2c21.3,0,39.4,5.6,54.5,16.9c15,11.3,22.6,24.9,22.6,40.8
		c0,15.9-7.5,29.5-22.6,40.8c-15,11.3-33.2,16.9-54.5,16.9c-21.3,0-39.4-5.6-54.5-16.9c-15-11.3-22.6-24.9-22.6-40.8
		c0-15.9,7.5-29.5,22.6-40.8C122.8,82.9,140.9,77.2,162.2,77.2z"/>
	<g id="wing">
		<path fill-rule="evenodd" fill="#8C0000" d="M86.2,133.3c-33.1,21-57.2-0.9-72.5-65.7C79.7,76.4,103.9,98.3,86.2,133.3z"/>
	</g>
	<path fill-rule="evenodd" fill="#EDD5C3" d="M133.4,164.4c7.5-13.3,19.2-23.7,35-31.1c15.9-7.5,31.4-9.9,46.4-7.2
		c15,2.7,25.1,9.7,30.5,21c5.3,11.3,4.2,23.6-3.2,36.9c-7.5,13.3-19.2,23.7-35.1,31.2c-15.9,7.5-31.3,9.9-46.3,7.2
		c-15-2.7-25.2-9.7-30.5-21C124.8,190,125.9,177.7,133.4,164.4z"/>
	<path fill-rule="evenodd" fill="#FFE5D7" d="M139,156.5c7.8-11.6,19.4-21.1,34.7-28.3c15.4-7.2,30-10.1,44-8.7
		c13.9,1.4,23.1,6.7,27.4,16c4.4,9.2,2.6,19.7-5.1,31.3s-19.4,21.1-34.7,28.3c-15.3,7.2-30,10.1-43.9,8.7
		c-13.9-1.4-23.1-6.7-27.4-16C129.5,178.5,131.2,168.1,139,156.5z"/>
	<path fill-rule="evenodd" fill="#C9946C" d="M210.7,143.8c-14.2,14.2-31.3,21.3-51.4,21.3c-20.1,0-37.2-7.1-51.4-21.3
		c-14.2-14.2-21.3-31.3-21.3-51.4s7.1-37.2,21.3-51.4c14.2-14.2,31.3-21.3,51.4-21.3c20.1,0,37.2,7.1,51.4,21.3
		C224.9,55.2,232,72.4,232,92.4S224.9,129.6,210.7,143.8z"/>
	<image width="1080" height="1920" xlink:href="57D54420.jpg"  transform="matrix(1 0 0 1 -7894 -7770.1099)">
	</image>
	<path fill-rule="evenodd" fill="#999999" d="M183.9,22.4c0.4,5.5-2.8,10.4-9.6,14.9c-6.9,4.4-15.4,7.1-25.5,7.9
		c-10.1,0.8-18.9-0.5-26.4-3.8c-7.5-3.3-11.4-7.7-11.9-13.2s2.8-10.5,9.7-14.9c6.9-4.4,15.4-7,25.5-7.8c10.1-0.8,18.9,0.5,26.4,3.8
		C179.5,12.5,183.5,17,183.9,22.4z"/>
	<path fill-rule="evenodd" fill="#8C0000" d="M217,106.7c-44.8,11.5-66,3.7-63.6-23.5C169.3,61,190.5,68.8,217,106.7z"/>
	<g id="EYE_1_">
		
			<circle fill-rule="evenodd" fill="#FFE5D7" stroke="#EDD5C3" stroke-width="2.0301" stroke-miterlimit="10" cx="131.6" cy="83" r="57.2"/>
		<g>
			<circle fill-rule="evenodd" fill="#999999" cx="131.6" cy="83" r="35.8"/>
			
				<circle fill="none" stroke="#999999" stroke-width="26.3918" stroke-miterlimit="10" stroke-dasharray="16.0759,16.0759" cx="131.6" cy="83" r="35.8"/>
		</g>
		<path fill-rule="evenodd" fill="#FFAA00" d="M145.8,80.8c1.2,7.9-4.2,15.2-12.1,16.4c-7.9,1.2-15.2-4.2-16.4-12.1
			c-1.2-7.9,4.2-15.2,12.1-16.4C137.3,67.6,144.6,73,145.8,80.8z"/>
	</g>
	<g id="EYE">
		<circle fill-rule="evenodd" fill="#FFE5D7" stroke="#EDD5C3" stroke-miterlimit="10" cx="198.3" cy="58.1" r="28.2"/>
		<g>
			<circle fill-rule="evenodd" fill="#999999" cx="198.3" cy="58.1" r="17.6"/>
			
				<circle fill="none" stroke="#999999" stroke-width="13" stroke-miterlimit="10" stroke-dasharray="7.9186,7.9186" cx="198.3" cy="58.1" r="17.6"/>
		</g>
		<circle fill-rule="evenodd" fill="#FFAA00" cx="198.3" cy="58.1" r="7.1"/>
	</g>
</g>
</svg>
